<?xml version="1.0" standalone="no"?>
<!DOCTYPE svg PUBLIC "-//W3C//DTD SVG 20010904//EN"
 "http://www.w3.org/TR/2001/REC-SVG-20010904/DTD/svg10.dtd">
<svg version="1.0" xmlns="http://www.w3.org/2000/svg"
 width="700.000000pt" height="700.000000pt" viewBox="0 0 700.000000 700.000000"
 preserveAspectRatio="xMidYMid meet">
<metadata>
Created by potrace 1.11, written by Peter Selinger 2001-2013
</metadata>
<g transform="translate(0.000000,700.000000) scale(0.100000,-0.100000)"
fill="#000000" stroke="none">
<path d="M1 3508 c0 -2979 2 -3486 14 -3448 8 25 217 785 465 1690 249 905
454 1648 456 1652 8 12 794 10 794 -2 0 -7 -905 -3312 -926 -3383 -5 -16 5
-17 143 -15 l148 3 305 1112 c168 611 307 1114 310 1117 3 2 54 -125 114 -283
59 -158 111 -293 115 -299 4 -7 104 94 263 266 141 152 267 288 281 300 l25
24 -14 -49 c-7 -26 -140 -509 -294 -1073 -155 -564 -287 -1046 -295 -1073
l-14 -47 148 0 147 0 464 1688 c254 928 465 1695 468 1705 4 16 32 17 404 17
376 0 399 -1 394 -17 -13 -45 -916 -3341 -922 -3366 l-6 -27 145 0 c130 0 146
2 151 18 3 9 213 773 466 1696 254 924 463 1683 466 1688 7 11 794 10 794 -1
0 -6 -901 -3297 -926 -3383 -5 -17 31 -18 649 -18 l654 0 -159 712 c-87 391
-160 720 -164 730 -5 16 -25 18 -259 20 l-255 3 831 973 830 972 395 0 394 0
0 1795 0 1795 -3500 0 -3500 0 1 -3492z"/>
<path d="M6332 2615 c-364 -426 -662 -782 -662 -791 0 -9 90 -421 200 -915
110 -494 200 -900 200 -903 0 -3 209 -6 465 -6 l465 0 0 1695 c0 932 -2 1695
-3 1695 -2 0 -301 -349 -665 -775z"/>
</g>
</svg>
