<?xml version="1.0" encoding="UTF-8" standalone="no"?>
<!DOCTYPE svg PUBLIC "-//W3C//DTD SVG 1.1//EN" "http://www.w3.org/Graphics/SVG/1.1/DTD/svg11.dtd">
<svg width="100%" height="100%" viewBox="0 0 2220 2220" version="1.1" xmlns="http://www.w3.org/2000/svg" xmlns:xlink="http://www.w3.org/1999/xlink" xml:space="preserve" xmlns:serif="http://www.serif.com/" style="fill-rule:evenodd;clip-rule:evenodd;stroke-linejoin:round;stroke-miterlimit:2;">
    <rect x="0" y="0" width="2220" height="2220" style="fill:rgb(39,39,39);"/>
    <g transform="matrix(1.8481,0,-0.274544,1,-479.694,1140)">
        <rect x="420" y="0" width="137.126" height="1080" style="fill:white;"/>
    </g>
    <g transform="matrix(1.8481,0,-0.274544,1,213.693,1140)">
        <rect x="420" y="0" width="137.126" height="1080" style="fill:white;"/>
    </g>
    <g transform="matrix(1.8481,0,-0.274544,1,560.386,1140)">
        <rect x="420" y="0" width="137.126" height="1080" style="fill:white;"/>
    </g>
    <g transform="matrix(1.8481,0,-0.156608,0.570431,835.599,1140)">
        <path d="M750.291,0L613.165,0L420,1080L557.126,1080L750.291,0Z" style="fill:white;"/>
    </g>
    <g transform="matrix(-1.5853,0,-0.156608,0.570431,2760.67,1603.93)">
        <path d="M750.291,0L613.165,0L420,1080L557.126,1080L750.291,0Z" style="fill:white;"/>
    </g>
    <g transform="matrix(1.05938,0,-0.274544,1,275.009,1140)">
        <path d="M347.555,366.367L467.165,561.116L586.774,366.367L586.774,1080L347.555,1080L347.555,366.367Z" style="fill:white;"/>
    </g>
</svg>
